<svg xmlns="http://www.w3.org/2000/svg" viewBox="0 0 512 512" width="512" height="512" role="img" aria-label="Detailly">
  <!--
    App-Icon = die bestehende Marken-Kachel aus src/components/brand.tsx:
    Kupfer-Verlauf (bg-copper-grad) + das Auto-Glyph in Ink-950.
    Vollflaechiger Hintergrund => maskable-tauglich (Safe-Zone in der Mitte).
  -->
  <defs>
    <linearGradient id="copper" x1="0" y1="0" x2="1" y2="1">
      <stop offset="0" stop-color="#F2B877" />
      <stop offset="0.45" stop-color="#E8923B" />
      <stop offset="1" stop-color="#D27C26" />
    </linearGradient>
  </defs>
  <rect width="512" height="512" fill="url(#copper)" />
  <g transform="translate(106 118.5) scale(12.5)" fill="none" stroke="#070809"
     stroke-width="2.1" stroke-linecap="round" stroke-linejoin="round">
    <path d="M5 11l1.5-4.5A2 2 0 0 1 8.4 5h7.2a2 2 0 0 1 1.9 1.5L19 11" />
    <path d="M5 11h14a2 2 0 0 1 2 2v3a1 1 0 0 1-1 1h-1M5 11a2 2 0 0 0-2 2v3a1 1 0 0 0 1 1h1" />
    <circle cx="7.5" cy="16.5" r="1.1" />
    <circle cx="16.5" cy="16.5" r="1.1" />
  </g>
</svg>
